<svg xmlns="http://www.w3.org/2000/svg" viewBox="0 0 1600 600" width="1600" height="600" role="img" aria-label="Onglerie">
  <defs>
    <linearGradient id="o-bg" x1="0" y1="0" x2="1" y2="1">
      <stop offset="0" stop-color="#fdfaf6"/><stop offset="1" stop-color="#f4e6e1"/>
    </linearGradient>
  </defs>
  <rect width="1600" height="600" fill="url(#o-bg)"/>
  <circle cx="520" cy="300" r="272" fill="#f7f0e7"/>
  <circle cx="1180" cy="300" r="220" fill="#f4e6e1" opacity="0.55"/>

  <!-- La main : quatre doigts et le pouce, ongles posés. -->
  <g fill="none" stroke="#1f2e4a" stroke-width="3.4" stroke-linecap="round" stroke-linejoin="round">
    <path d="M354 560 v -142 a 30 30 0 0 1 60 0 v -186 a 30 30 0 0 1 60 0 v 172"/>
    <path d="M474 404 v -148 a 30 30 0 0 1 60 0 v 166"/>
    <path d="M534 422 v -110 a 30 30 0 0 1 60 0 v 168 a 148 148 0 0 1 -148 148 h -26 a 92 92 0 0 1 -92 -92"/>
  </g>
  <g fill="#a15a52">
    <ellipse cx="384" cy="242" rx="23" ry="16"/>
    <ellipse cx="444" cy="212" rx="23" ry="16"/>
    <ellipse cx="504" cy="238" rx="23" ry="16"/>
    <ellipse cx="564" cy="290" rx="23" ry="16"/>
  </g>

  <!-- Le flacon de vernis, pinceau relevé. -->
  <g fill="none" stroke="#8a6a26" stroke-width="3.2" stroke-linejoin="round">
    <path d="M900 226 h 104 v 250 a 28 28 0 0 1 -28 28 h -48 a 28 28 0 0 1 -28 -28 z"/>
    <path d="M934 226 v -56 h 36 v 56"/>
    <path d="M952 112 v 58"/>
  </g>
  <path d="M900 350 h 104 v 126 a 28 28 0 0 1 -28 28 h -48 a 28 28 0 0 1 -28 -28 z" fill="#a15a52" opacity="0.75"/>

  <!-- Bâtonnet de buffle et limes croisés. -->
  <g stroke="#8a6a26" stroke-width="6" stroke-linecap="round">
    <path d="M1090 430 L 1290 190"/>
    <path d="M1090 210 L 1290 448"/>
  </g>
  <circle cx="1302" cy="176" r="15" fill="#1f2e4a"/>
  <circle cx="1302" cy="461" r="15" fill="#a15a52"/>
  <path d="M110 552 H 1490" stroke="#8a6a26" stroke-width="1.2" opacity="0.45"/>
</svg>
